<?xml version="1.0" standalone="no"?><!DOCTYPE svg PUBLIC "-//W3C//DTD SVG 1.1//EN" "http://www.w3.org/Graphics/SVG/1.1/DTD/svg11.dtd"><svg t="1650596277603" class="icon" viewBox="0 0 1024 1024" version="1.1" xmlns="http://www.w3.org/2000/svg" p-id="10219" xmlns:xlink="http://www.w3.org/1999/xlink" width="128" height="128"><defs><style type="text/css">
</style></defs><path d="M921.6 668.176V518.4a57.664 57.664 0 0 0-57.6-57.6H563.2V355.824c58.352-11.888 102.4-63.608 102.4-125.424 0-70.576-57.424-128-128-128s-128 57.424-128 128c0 61.816 44.048 113.536 102.4 125.424V460.8H211.2a57.664 57.664 0 0 0-57.6 57.6v149.776C95.248 680.064 51.2 731.784 51.2 793.6c0 70.576 57.424 128 128 128s128-57.424 128-128c0-61.816-44.048-113.536-102.4-125.424V518.4a6.4 6.4 0 0 1 6.4-6.4h300.8v156.176C453.648 680.064 409.6 731.784 409.6 793.6c0 70.576 57.424 128 128 128s128-57.424 128-128c0-61.816-44.048-113.536-102.4-125.424V512h300.8a6.4 6.4 0 0 1 6.4 6.4v149.776c-58.352 11.888-102.4 63.608-102.4 125.424 0 70.576 57.424 128 128 128s128-57.424 128-128c0-61.816-44.048-113.536-102.4-125.424z" fill="#1296db" p-id="10220"></path></svg>