<svg width="81.808px" height="81.808px" viewBox="0 -7.58 81.808 81.808" xmlns="http://www.w3.org/2000/svg">
  <g id="desktop_screen" data-name="desktop screen" transform="translate(-261.901 -625.515)">
    <path id="Path_23" data-name="Path 23" d="M315.963,690.7H289.646a.793.793,0,0,0-.836.738v.736H316.8v-.736A.788.788,0,0,0,315.963,690.7Z" fill="#c9d1d1"/>
    <path id="Path_24" data-name="Path 24" d="M294.124,682.252,292.17,690.7h21.272l-1.955-8.443Z" fill="#e4e7e7"/>
    <path id="Path_25" data-name="Path 25" d="M342.035,625.515H263.569a1.676,1.676,0,0,0-1.668,1.668v53.4a1.68,1.68,0,0,0,1.668,1.667h78.466a1.679,1.679,0,0,0,1.674-1.667v-53.4A1.675,1.675,0,0,0,342.035,625.515Zm-77.622,3.407H341.2v43.094H264.413Z" fill="#163844"/>
    <rect id="Rectangle_11" data-name="Rectangle 11" width="76.786" height="49.846" transform="translate(264.413 628.922)" fill="#576d78"/>
  </g>
</svg>
