<?xml version="1.0" standalone="no"?><!DOCTYPE svg PUBLIC "-//W3C//DTD SVG 1.1//EN" "http://www.w3.org/Graphics/SVG/1.1/DTD/svg11.dtd"><svg t="1650596412803" class="icon" viewBox="0 0 1091 1024" version="1.1" xmlns="http://www.w3.org/2000/svg" p-id="12867" xmlns:xlink="http://www.w3.org/1999/xlink" width="136.375" height="128"><defs><style type="text/css">
</style></defs><path d="M1007.213115 8.393443a75.540984 75.540984 0 0 1 75.457049 71.982164L1082.754098 83.934426v555.629115a75.540984 75.540984 0 0 1-71.982164 75.457049l-3.558819 0.083935-100.721312-0.016787V805.770492a50.360656 50.360656 0 0 1-50.360655 50.360656H419.672131l-237.786229 152.878163V856.131148H50.360656a50.360656 50.360656 0 0 1-50.360656-50.360656V235.016393a50.360656 50.360656 0 0 1 50.360656-50.360655l109.114754-0.016787V83.934426A75.540984 75.540984 0 0 1 231.457574 8.477377L235.016393 8.393443h772.196722zM856.131148 235.016393H50.360656v570.754099h181.885901v110.978098L404.866098 805.770492H856.131148V235.016393z m151.081967-176.262295H235.016393a25.180328 25.180328 0 0 0-25.062819 22.763017L209.836066 83.934426v100.704525L856.131148 184.655738a50.360656 50.360656 0 0 1 50.360655 50.360655v429.710689h100.721312a25.180328 25.180328 0 0 0 25.062819-22.74623l0.117509-2.417311V83.934426a25.180328 25.180328 0 0 0-22.763017-25.062819L1007.213115 58.754098z" p-id="12868" fill="#ffffff"></path></svg>