<?xml version="1.0" encoding="iso-8859-1"?>
<!-- Generator: Adobe Illustrator 19.0.0, SVG Export Plug-In . SVG Version: 6.00 Build 0)  -->
<svg version="1.1" id="Layer_1" xmlns="http://www.w3.org/2000/svg" xmlns:xlink="http://www.w3.org/1999/xlink" x="0px" y="0px"
	 viewBox="0 0 512.001 512.001" style="enable-background:new 0 0 512.001 512.001;" xml:space="preserve">
<polygon style="fill:#CFF09E;" points="343.769,14.934 437.399,63.898 343.881,113.099 "/>
<path style="fill:#507C5C;" d="M444.319,50.665L350.689,1.7c-4.629-2.422-10.19-2.246-14.661,0.463
	c-4.469,2.71-7.196,7.561-7.19,12.787l0.039,34.077l-45.677,0.042c-8.247,0.007-14.927,6.699-14.92,14.946
	c0.007,8.243,6.691,14.92,14.933,14.92c0.004,0,0.009,0,0.013,0l45.684-0.042l0.039,34.223c0.006,5.228,2.745,10.071,7.222,12.771
	c2.367,1.428,5.037,2.146,7.711,2.146c2.385,0,4.773-0.57,6.953-1.717l93.518-49.201c4.913-2.585,7.988-7.683,7.98-13.234
	S449.239,53.238,444.319,50.665z M358.787,88.385l-0.057-48.776l46.521,24.329L358.787,88.385z"/>
<rect x="124.601" y="411.166" style="fill:#CFF09E;" width="207.882" height="85.91"/>
<g>
	<path style="fill:#507C5C;" d="M332.489,512.001H124.604c-8.247,0-14.933-6.685-14.933-14.933V411.16
		c0-8.248,6.685-14.933,14.933-14.933h207.885c8.246,0,14.933,6.685,14.933,14.933v85.908
		C347.422,505.315,340.735,512.001,332.489,512.001z M139.537,482.135h178.019v-56.042H139.537V482.135z"/>
	<path style="fill:#507C5C;" d="M113.979,360.541c-6.327,0-12.202-4.053-14.225-10.404l-37.9-118.968
		c-7.728-24.22,5.685-50.229,29.902-57.973c11.742-3.75,24.235-2.703,35.185,2.943c10.955,5.648,19.052,15.223,22.798,26.96
		l14.839,46.176c2.522,7.852-1.796,16.264-9.648,18.786c-7.852,2.522-16.264-1.796-18.786-9.648l-14.846-46.203
		c-1.329-4.16-4.181-7.534-8.041-9.524c-3.862-1.991-8.268-2.361-12.409-1.039c-8.534,2.73-13.265,11.905-10.537,20.451
		l37.901,118.973c2.503,7.858-1.837,16.258-9.696,18.762C117.009,360.311,115.48,360.54,113.979,360.541z"/>
	<path style="fill:#507C5C;" d="M351.313,360.537c-8.246,0-14.933-6.686-14.933-14.933V205.801c0-9.406-7.653-17.059-17.061-17.059
		H212.75c-8.247,0-14.933-6.685-14.933-14.933V46.411c0-8.966-7.295-16.262-16.262-16.262s-16.262,7.295-16.262,16.262v94.938
		c0,8.247-6.686,14.933-14.933,14.933c-8.247,0-14.933-6.685-14.933-14.933V46.411c0-25.435,20.693-46.128,46.128-46.128
		s46.128,20.693,46.128,46.128v112.463h91.638c25.876,0,46.927,21.051,46.927,46.925v139.803
		C366.246,353.851,359.561,360.537,351.313,360.537z"/>
</g>
<g>
</g>
<g>
</g>
<g>
</g>
<g>
</g>
<g>
</g>
<g>
</g>
<g>
</g>
<g>
</g>
<g>
</g>
<g>
</g>
<g>
</g>
<g>
</g>
<g>
</g>
<g>
</g>
<g>
</g>
</svg>
