<?xml version="1.0" standalone="no"?><!DOCTYPE svg PUBLIC "-//W3C//DTD SVG 1.1//EN" "http://www.w3.org/Graphics/SVG/1.1/DTD/svg11.dtd"><svg t="1650595802482" class="icon" viewBox="0 0 1024 1024" version="1.1" xmlns="http://www.w3.org/2000/svg" p-id="4540" xmlns:xlink="http://www.w3.org/1999/xlink" width="128" height="128"><defs><style type="text/css">
</style></defs><path d="M402.816 843.584v61.248A56.064 56.064 0 0 1 310.144 947.2l-196.352-169.152a56.064 56.064 0 0 1 0-84.8l196.352-169.152a56.064 56.064 0 0 1 92.672 42.368v61.184h273.088a140.288 140.288 0 0 0 126.208-79.04l21.952-45.312c25.92-53.568 106.496-35.072 106.496 24.384v91.968a224 224 0 0 1-224 224z m0 0" fill="#1EDAB5" p-id="4541"></path><path d="M629.248 182.208v-61.184a56.064 56.064 0 0 1 92.672-42.368l196.288 169.152a55.936 55.936 0 0 1 0 84.8L721.92 501.76a56.064 56.064 0 0 1-92.672-42.368v-61.248H356.16a140.224 140.224 0 0 0-126.208 79.104l-21.888 45.312c-25.984 53.44-106.56 35.072-106.56-24.384V406.144a224 224 0 0 1 224-224z m0 0" fill="#77E89B" p-id="4542"></path></svg>