<?xml version="1.0" encoding="iso-8859-1"?>
<!-- Generator: Adobe Illustrator 19.0.0, SVG Export Plug-In . SVG Version: 6.00 Build 0)  -->
<svg version="1.1" id="Layer_1" xmlns="http://www.w3.org/2000/svg" xmlns:xlink="http://www.w3.org/1999/xlink" x="0px" y="0px"
	 viewBox="0 0 511.999 511.999" style="enable-background:new 0 0 511.999 511.999;" xml:space="preserve">
<g>
	<path style="fill:#FCD051;" d="M186.51,126.726l62.512-13.701l62.513-13.708l62.511-13.708l62.516-13.705l31.266-6.855
		l-4.59-20.928c-5.015-22.872-27.831-37.482-50.703-32.469L58.107,89.361c-22.872,5.013-37.486,27.831-32.469,50.703l4.588,20.928
		l31.254-6.853l62.516-13.708L186.51,126.726z"/>
	<g>
		<polygon style="fill:#ED8C18;" points="61.48,154.14 30.226,160.992 39.363,202.666 476.967,106.726 467.829,65.05 		"/>
		<polygon style="fill:#ED8C18;" points="114.032,202.666 39.363,202.666 39.363,245.335 487.358,245.335 487.358,202.666 		"/>
	</g>
	<path style="fill:#FCD051;" d="M391.352,245.335h-63.996h-63.999h-64h-63.996H71.363h-32v213.423
		c0,23.414,19.158,42.574,42.578,42.574h362.844c23.416,0,42.574-19.16,42.574-42.574V288.005v-42.67h-32.006H391.352z"/>
</g>
<g>
	<path style="fill:#000003;" d="M487.358,191.998H137.831l341.42-74.853c2.765-0.604,5.174-2.284,6.698-4.667
		c1.528-2.381,2.044-5.273,1.438-8.038l-9.132-41.642c-0.002-0.011-0.002-0.02-0.006-0.031c-0.002-0.011-0.006-0.021-0.009-0.031
		l-4.582-20.897C468.344,17.595,446.453,0,421.608,0c-3.802,0-7.623,0.415-11.357,1.233L55.823,78.941
		c-13.846,3.036-25.706,11.317-33.392,23.32c-7.688,12.005-10.249,26.242-7.213,40.086l4.584,20.908
		c0,0.006,0.002,0.015,0.002,0.021c0.002,0.009,0.006,0.017,0.009,0.025l8.883,40.521v254.936c0,29.357,23.885,53.241,53.245,53.241
		h362.844c29.357,0,53.241-23.885,53.241-53.241V202.666C498.026,196.776,493.248,191.998,487.358,191.998z M417.103,234.668
		l21.335-21.335h33.827l-21.333,21.335H417.103z M353.107,234.668l21.335-21.335h33.825l-21.335,21.335H353.107z M289.109,234.668
		l21.333-21.335h33.827l-21.333,21.335H289.109z M225.109,234.668l21.335-21.335h33.827l-21.333,21.335H225.109z M161.113,234.668
		l21.335-21.335h33.825l-21.335,21.335H161.113z M97.116,234.668l21.333-21.335h33.825l-21.333,21.335H97.116z M50.03,234.668
		v-21.335h38.248l-21.335,21.335H50.03z M59.449,165.505l25.403,16.268l-37.355,8.19l-4.567-20.835L59.449,165.505z M121.966,151.8
		l25.403,16.266l-33.044,7.244l-25.403-16.266L121.966,151.8z M184.479,138.095l25.402,16.266l-33.04,7.244l-25.402-16.268
		L184.479,138.095z M372.017,96.977l25.403,16.268l-33.042,7.244l-25.403-16.268L372.017,96.977z M434.533,83.273l25.403,16.266
		l-33.044,7.244l-25.403-16.266L434.533,83.273z M309.504,110.683l25.403,16.268l-33.042,7.244l-25.403-16.268L309.504,110.683z
		 M246.989,124.389l25.403,16.266l-33.04,7.244l-25.402-16.268L246.989,124.389z M40.397,113.768
		c4.615-7.205,11.715-12.172,19.995-13.986l354.427-77.708c2.236-0.492,4.519-0.739,6.788-0.739
		c14.901,0,28.026,10.545,31.211,25.073l2.304,10.51l-20.828,4.567c-0.011,0.002-0.019,0.004-0.029,0.006l-62.487,13.699
		c-0.011,0.002-0.019,0.004-0.029,0.006L184.258,116.3c-0.021,0.006-0.044,0.011-0.065,0.015l-62.465,13.695
		c-0.011,0.004-0.021,0.006-0.031,0.009l-62.5,13.703h-0.002l-20.832,4.567l-2.304-10.51
		C34.243,129.5,35.785,120.973,40.397,113.768z M444.784,490.665H81.94c-13.855,0-25.669-8.877-30.069-21.239l42.603,0.004l0,0
		c5.892,0,10.667-4.776,10.667-10.667c0-5.889-4.776-10.667-10.665-10.667l-44.447-0.004V256.004h426.661v202.755
		C476.691,476.352,462.377,490.665,444.784,490.665z"/>
	<path style="fill:#000003;" d="M125.373,448.099h-0.252c-5.892,0-10.667,4.776-10.667,10.667c0,5.892,4.776,10.667,10.667,10.667
		h0.252c5.892,0,10.667-4.776,10.667-10.667C136.04,452.875,131.264,448.099,125.373,448.099z"/>
	<path style="fill:#000003;" d="M300.059,341.332h91.669c5.892,0,10.667-4.776,10.667-10.667c0-5.892-4.776-10.667-10.667-10.667
		h-91.669c-5.892,0-10.667,4.776-10.667,10.667C289.392,336.556,294.167,341.332,300.059,341.332z"/>
	<path style="fill:#000003;" d="M423.359,319.997h-0.693c-5.892,0-10.667,4.776-10.667,10.667c0,5.892,4.776,10.667,10.667,10.667
		h0.693c5.892,0,10.667-4.776,10.667-10.667C434.027,324.772,429.252,319.997,423.359,319.997z"/>
	<path style="fill:#000003;" d="M103.369,341.332h159.992c5.892,0,10.667-4.776,10.667-10.667c0-5.892-4.776-10.667-10.667-10.667
		H103.369c-5.892,0-10.667,4.776-10.667,10.667C92.702,336.556,97.476,341.332,103.369,341.332z"/>
	<path style="fill:#000003;" d="M423.359,384h-319.99c-5.892,0-10.667,4.776-10.667,10.667c0,5.889,4.776,10.667,10.667,10.667
		h149.324v21.381c0,5.891,4.776,10.667,10.667,10.667s10.667-4.777,10.667-10.667v-21.381h149.331
		c5.892,0,10.667-4.778,10.667-10.667C434.027,388.774,429.252,384,423.359,384z"/>
</g>
<g>
</g>
<g>
</g>
<g>
</g>
<g>
</g>
<g>
</g>
<g>
</g>
<g>
</g>
<g>
</g>
<g>
</g>
<g>
</g>
<g>
</g>
<g>
</g>
<g>
</g>
<g>
</g>
<g>
</g>
</svg>
