<?xml version="1.0" encoding="iso-8859-1"?>
<!-- Generator: Adobe Illustrator 19.0.0, SVG Export Plug-In . SVG Version: 6.00 Build 0)  -->
<svg version="1.1" id="Layer_1" xmlns="http://www.w3.org/2000/svg" xmlns:xlink="http://www.w3.org/1999/xlink" x="0px" y="0px"
	 viewBox="0 0 502 502" style="enable-background:new 0 0 502 502;" xml:space="preserve">
<g>
	<path style="fill:#D1E2EB;" d="M440.281,440.28L440.281,440.28c-68.959,68.959-180.764,68.959-249.723,0L61.719,311.442
		c-68.959-68.959-68.959-180.764,0-249.723l0,0c68.959-68.959,180.764-68.959,249.723,0L440.28,190.557
		C509.24,259.517,509.24,371.321,440.281,440.28z"/>
	<g>
		<path d="M219.387,421.849c-2.56,0-5.118-0.976-7.071-2.929l-24.058-24.058c-3.905-3.905-3.905-10.237,0-14.143
			c3.906-3.905,10.236-3.905,14.143,0l24.058,24.058c3.905,3.905,3.905,10.237,0,14.143
			C224.505,420.873,221.946,421.849,219.387,421.849z"/>
	</g>
	<g>
		<path d="M315.253,461.65c-20.979,0-41.692-4.523-60.957-13.412c-5.015-2.314-7.203-8.255-4.89-13.27
			c2.314-5.015,8.254-7.204,13.271-4.89c47.64,21.983,104.586,11.816,141.703-25.3c3.907-3.905,10.237-3.904,14.143,0
			c3.905,3.905,3.905,10.237,0,14.142c-21.51,21.509-48.679,35.562-78.571,40.639C331.726,460.956,323.469,461.65,315.253,461.65z"
			/>
	</g>
	<g>
		<path style="fill:#4EC9DC;" d="M164.313,164.313L164.313,164.313c-9.224,9.224-24.179,9.224-33.402,0l-36.584-36.584
			c-9.224-9.224-9.224-24.179,0-33.402l0,0c9.224-9.224,24.179-9.224,33.402,0l36.584,36.584
			C173.537,140.134,173.537,155.089,164.313,164.313z"/>
		<path d="M447.352,183.486L318.514,54.648C283.273,19.408,236.419,0,186.581,0C136.746,0,89.895,19.406,54.655,54.642
			c-0.002,0.002-0.005,0.004-0.007,0.006s-0.004,0.004-0.006,0.007C19.406,89.895,0,136.747,0,186.581
			c0,49.837,19.408,96.692,54.648,131.933l128.838,128.838C218.727,482.592,265.581,502,315.419,502s96.692-19.408,131.933-54.648
			C482.592,412.111,502,365.256,502,315.419S482.592,218.727,447.352,183.486z M433.209,433.209L433.209,433.209
			C401.746,464.673,359.914,482,315.419,482s-86.327-17.327-117.79-48.79L68.791,304.371C37.327,272.908,20,231.076,20,186.581
			c0-41.145,14.826-80.006,41.935-110.504L81.258,95.4c-6.648,12.683-4.649,28.753,5.997,39.4l36.584,36.583
			c6.35,6.35,14.792,9.847,23.772,9.847c5.538,0,10.869-1.334,15.633-3.843l19.446,19.446c1.953,1.953,4.512,2.929,7.071,2.929
			s5.118-0.976,7.071-2.929c3.905-3.905,3.905-10.237,0-14.143l-19.452-19.452c6.648-12.683,4.649-28.752-5.997-39.399L134.8,87.255
			c-10.648-10.647-26.717-12.644-39.4-5.997L76.078,61.935C106.575,34.826,145.436,20,186.581,20
			c44.495,0,86.327,17.327,117.79,48.79l128.838,128.839C464.673,229.092,482,270.924,482,315.419S464.673,401.746,433.209,433.209z
			 M157.241,157.241C157.241,157.242,157.241,157.242,157.241,157.241c-2.572,2.573-5.992,3.989-9.63,3.989s-7.058-1.417-9.63-3.989
			l-36.584-36.583c-5.311-5.31-5.311-13.95,0-19.26c2.655-2.655,6.143-3.983,9.631-3.983c3.487,0,6.976,1.328,9.63,3.982
			l36.583,36.583C162.551,143.292,162.552,151.932,157.241,157.241z"/>
	</g>
</g>
<g>
</g>
<g>
</g>
<g>
</g>
<g>
</g>
<g>
</g>
<g>
</g>
<g>
</g>
<g>
</g>
<g>
</g>
<g>
</g>
<g>
</g>
<g>
</g>
<g>
</g>
<g>
</g>
<g>
</g>
</svg>
