<?xml version="1.0" standalone="no"?><!DOCTYPE svg PUBLIC "-//W3C//DTD SVG 1.1//EN" "http://www.w3.org/Graphics/SVG/1.1/DTD/svg11.dtd"><svg t="1650596641333" class="icon" viewBox="0 0 1024 1024" version="1.1" xmlns="http://www.w3.org/2000/svg" p-id="21205" xmlns:xlink="http://www.w3.org/1999/xlink" width="128" height="128"><defs><style type="text/css">
</style></defs><path d="M69.8368 344.96S155.52 81.7408 449.3568 31.9232c0 0-45.0304 64.8192-87.8848 168.1664 0 0-90.112-9.8816-111.2576 82.1248 0 0.0768-96.2304 17.5104-180.3776 62.72z m182.6048-9.8048s-124.032 26.3424-203.648 85.1968c0 0-41.4208 175.0272 58.5728 338.688 0 0 102.9632 22.5536 206.6432 12.0576 0 0-0.6912-64.9472 41.4208-97.3312 0 0-51.072-131.8912-38.3744-272.1792 0-0.0768-52.5824-12.8512-64.6144-66.432z m-103.68 484.9408s131.5584 203.6736 436.6592 175.6672c0 0-108.3904-103.2704-130.7136-136.4736 0 0-84.8896 21.12-114.2272-39.1168-0.0768-0.0768-109.7728 16.5376-191.6928-0.0768z m348.7488 7.5008s21.0688-9.088 28.8512-60.3136c0 0 169.5232-59.6224 274.048-219.4432 0 0 33.1264 2.2272 56.32-15.8208 0 0 79.104 73.856 116.608 170.368 0 0-73.7792 211.1744-312.6784 279.04-0.128 0.0768-107.5456-70.0928-163.1488-153.8304zM931.0208 247.68s123.2128 141.7472 67.6864 382.3104c0 0-68.352-110.5664-102.4-136.192 0 0 30.464-59.3408-4.5312-103.04 0-0.0768 32.5888-63.9488 39.2448-143.104z m-519.2448-31.488s36.1216 29.184 37.5296 55.8848c0 0 152.7808 9.4976 285.1584 92.9024 0 0 59.136-48.7936 116.3264-12.5184 0 0 31.3856-58.2912 37.9904-165.4528 0 0-118.1952-155.8528-364.7232-161.408-0.0768 0.0768-96.256 131.2512-112.2816 190.592z m-42.0352 188.5952s71.0656 4.5056 83.0976-79.9232c0 0 140.8 13.056 253.056 79.9232 0 0-27.0848 85.4016 42.5216 127.232 0 0-70.1696 105.8816-229.9904 181.9648 0 0-31.5392-73.4464-114.2272-59.8272 0.0768 0-33.4848-64.8192-34.4576-249.3696z" fill="#4493C5" p-id="21206"></path></svg>