<?xml version="1.0" standalone="no"?><!DOCTYPE svg PUBLIC "-//W3C//DTD SVG 1.1//EN" "http://www.w3.org/Graphics/SVG/1.1/DTD/svg11.dtd"><svg t="1650596677471" class="icon" viewBox="0 0 1024 1024" version="1.1" xmlns="http://www.w3.org/2000/svg" p-id="22021" xmlns:xlink="http://www.w3.org/1999/xlink" width="128" height="128"><defs><style type="text/css">
</style></defs><path d="M426.666667 106.666667H149.333333c-23.466667 0-42.666667 19.2-42.666666 42.666666v277.333334c0 23.466667 19.2 42.666667 42.666666 42.666666h320V149.333333c0-23.466667-19.2-42.666667-42.666666-42.666666zM874.666667 106.666667H597.333333c-23.466667 0-42.666667 19.2-42.666666 42.666666v320h320c23.466667 0 42.666667-19.2 42.666666-42.666666V149.333333c0-23.466667-19.2-42.666667-42.666666-42.666666zM106.666667 597.333333v277.333334c0 23.466667 19.2 42.666667 42.666666 42.666666h277.333334c23.466667 0 42.666667-19.2 42.666666-42.666666V554.666667H149.333333c-23.466667 0-42.666667 19.2-42.666666 42.666666zM874.666667 554.666667H554.666667v320c0 23.466667 19.2 42.666667 42.666666 42.666666h277.333334c23.466667 0 42.666667-19.2 42.666666-42.666666V597.333333c0-23.466667-19.2-42.666667-42.666666-42.666666z" p-id="22022" fill="#e6e6e6"></path></svg>