<?xml version="1.0" standalone="no"?><!DOCTYPE svg PUBLIC "-//W3C//DTD SVG 1.1//EN" "http://www.w3.org/Graphics/SVG/1.1/DTD/svg11.dtd"><svg t="1648268511347" class="icon" viewBox="0 0 1025 1024" version="1.1" xmlns="http://www.w3.org/2000/svg" p-id="3490" xmlns:xlink="http://www.w3.org/1999/xlink" width="128.125" height="128"><defs><style type="text/css">
</style></defs><path d="M512.581211 109.722612a457.138694 457.138694 0 1 0 457.138694 457.138694A457.138694 457.138694 0 0 0 512.581211 109.722612z m36.571096 484.567016a35.473963 35.473963 0 0 1-11.33704 31.633997l-164.569929 164.56993a18.285548 18.285548 0 0 1-25.782623 0l-25.782622-25.782622a18.285548 18.285548 0 0 1 0-25.965478l149.941491-149.941492a18.285548 18.285548 0 0 0 5.302809-12.982739V273.195409a18.285548 18.285548 0 0 1 18.285548-18.285548h36.571096a18.285548 18.285548 0 0 1 18.285547 18.285548z" p-id="3491" fill="#e6e6e6"></path><path d="M922.360337 309.035083L896.577714 283.069605a36.571096 36.571096 0 0 1 0-51.565245l12.982739-12.982739a18.285548 18.285548 0 0 0 5.302809-12.982739 18.285548 18.285548 0 0 0-5.302809-12.982738l-77.713578-77.530723a18.285548 18.285548 0 0 0-25.782622 0l-12.982739 12.982739a36.571096 36.571096 0 0 1-51.7481 0L715.550792 102.225538a36.571096 36.571096 0 0 1 0-51.748101l12.982738-12.982738a127.998834 127.998834 0 0 1 181.026923 0l73.142191 74.239323A133.301643 133.301643 0 0 1 1024.576549 193.836132a127.998834 127.998834 0 0 1-36.571096 102.216212l-12.982739 12.982739a36.571096 36.571096 0 0 1-52.662377 0zM51.053986 309.035083l-9.508485-9.508485A134.764487 134.764487 0 0 1 0.585874 217.424488a127.998834 127.998834 0 0 1 36.571096-102.399067l78.445-77.530722a127.998834 127.998834 0 0 1 181.026922 0l12.982739 12.982738a36.571096 36.571096 0 0 1 0 51.748101L283.829009 128.00816a36.571096 36.571096 0 0 1-51.7481 0L220.012447 115.025421a18.285548 18.285548 0 0 0-25.782622 0l-78.627855 77.530723a18.285548 18.285548 0 0 0-5.302809 12.982738 18.285548 18.285548 0 0 0 5.302809 12.982739l12.982739 12.982739a36.571096 36.571096 0 0 1 0 51.565245L102.802086 309.035083a36.571096 36.571096 0 0 1-51.7481 0z" p-id="3492" fill="#e6e6e6"></path></svg>