<?xml version="1.0" standalone="no"?><!DOCTYPE svg PUBLIC "-//W3C//DTD SVG 1.1//EN" "http://www.w3.org/Graphics/SVG/1.1/DTD/svg11.dtd"><svg t="1650596373357" class="icon" viewBox="0 0 1024 1024" version="1.1" xmlns="http://www.w3.org/2000/svg" p-id="11992" xmlns:xlink="http://www.w3.org/1999/xlink" width="128" height="128"><defs><style type="text/css">
</style></defs><path d="M157.538462 118.153846l708.923076 3.938462c23.630769 0 39.384615 19.692308 39.384616 39.384615v118.153846c0 23.630769-19.692308 39.384615-39.384616 39.384616l-708.923076-3.938462c-23.630769 0-39.384615-19.692308-39.384616-39.384615v-118.153846c0-23.630769 19.692308-39.384615 39.384616-39.384616z" fill="#2975E5" p-id="11993"></path><path d="M708.923077 748.307692h157.538461c23.630769 0 39.384615 15.753846 39.384616 39.384616v78.76923c0 23.630769-15.753846 39.384615-39.384616 39.384616h-157.538461c-23.630769 0-39.384615-15.753846-39.384615-39.384616v-78.76923c0-23.630769 15.753846-39.384615 39.384615-39.384616z m0-196.923077h157.538461c23.630769 0 39.384615 15.753846 39.384616 39.384616v78.769231c0 23.630769-15.753846 39.384615-39.384616 39.384615h-157.538461c-23.630769 0-39.384615-15.753846-39.384615-39.384615v-78.769231c0-23.630769 15.753846-39.384615 39.384615-39.384616z m0-196.923077h157.538461c23.630769 0 39.384615 15.753846 39.384616 39.384616v78.769231c0 23.630769-15.753846 39.384615-39.384616 39.384615h-157.538461c-23.630769 0-39.384615-15.753846-39.384615-39.384615v-78.769231c0-23.630769 15.753846-39.384615 39.384615-39.384616z m-275.692308 393.846154h157.538462c23.630769 0 39.384615 15.753846 39.384615 39.384616v78.76923c0 23.630769-15.753846 39.384615-39.384615 39.384616h-157.538462c-23.630769 0-39.384615-15.753846-39.384615-39.384616v-78.76923c0-23.630769 15.753846-39.384615 39.384615-39.384616z m0-196.923077h157.538462c23.630769 0 39.384615 15.753846 39.384615 39.384616v78.769231c0 23.630769-15.753846 39.384615-39.384615 39.384615h-157.538462c-23.630769 0-39.384615-15.753846-39.384615-39.384615v-78.769231c0-23.630769 15.753846-39.384615 39.384615-39.384616z m0-196.923077h157.538462c23.630769 0 39.384615 15.753846 39.384615 39.384616v78.769231c0 23.630769-15.753846 39.384615-39.384615 39.384615h-157.538462c-23.630769 0-39.384615-15.753846-39.384615-39.384615v-78.769231c0-23.630769 15.753846-39.384615 39.384615-39.384616z m-275.692307 393.846154h157.538461c23.630769 0 39.384615 15.753846 39.384615 39.384616v78.76923c0 23.630769-15.753846 39.384615-39.384615 39.384616h-157.538461c-23.630769 0-39.384615-15.753846-39.384616-39.384616v-78.76923c0-23.630769 15.753846-39.384615 39.384616-39.384616z m0-196.923077h157.538461c23.630769 0 39.384615 15.753846 39.384615 39.384616v78.769231c0 23.630769-15.753846 39.384615-39.384615 39.384615h-157.538461c-23.630769 0-39.384615-15.753846-39.384616-39.384615v-78.769231c0-23.630769 15.753846-39.384615 39.384616-39.384616z m0-196.923077h157.538461c23.630769 0 39.384615 15.753846 39.384615 39.384616v78.769231c0 23.630769-15.753846 39.384615-39.384615 39.384615h-157.538461c-23.630769 0-39.384615-15.753846-39.384616-39.384615v-78.769231c0-23.630769 15.753846-39.384615 39.384616-39.384616z" fill="#6FA0E9" p-id="11994"></path></svg>