<?xml version="1.0" encoding="iso-8859-1"?>
<!-- Generator: Adobe Illustrator 19.0.0, SVG Export Plug-In . SVG Version: 6.00 Build 0)  -->
<svg version="1.1" id="Layer_1" xmlns="http://www.w3.org/2000/svg" xmlns:xlink="http://www.w3.org/1999/xlink" x="0px" y="0px"
	 viewBox="0 0 512 512" style="enable-background:new 0 0 512 512;" xml:space="preserve">
<path style="fill:#7DD2F0;" d="M502.898,77.509c0-34.009-27.571-61.58-61.58-61.58H69.544c-34.009,0-61.58,27.571-61.58,61.58
	v358.119c0,34.01,27.571,61.581,61.58,61.581h371.773c34.009,0,61.58-27.571,61.58-61.58V77.509z"/>
<g>
	<circle style="fill:#FFFFFF;" cx="96.659" cy="111.047" r="45.636"/>
	<path style="fill:#FFFFFF;" d="M192.488,65.409c-8.094,0-14.656,6.562-14.656,14.656v61.957c0,8.094,6.562,14.656,14.656,14.656
		h255.535c8.094,0,14.657-6.562,14.657-14.656V80.064c0-8.094-6.562-14.656-14.657-14.656
		C448.023,65.409,192.488,65.409,192.488,65.409z"/>
	<circle style="fill:#FFFFFF;" cx="96.659" cy="255.772" r="45.636"/>
	<path style="fill:#FFFFFF;" d="M192.488,210.136c-8.094,0-14.656,6.562-14.656,14.656v61.957c0,8.094,6.562,14.656,14.656,14.656
		h255.535c8.094,0,14.657-6.562,14.657-14.656v-61.957c0-8.094-6.562-14.656-14.657-14.656L192.488,210.136L192.488,210.136z"/>
	<circle style="fill:#FFFFFF;" cx="96.659" cy="400.498" r="45.636"/>
	<path style="fill:#FFFFFF;" d="M448.023,446.133c8.094,0,14.657-6.562,14.657-14.657V369.52c0-8.094-6.562-14.656-14.657-14.656
		H192.488c-8.094,0-14.656,6.562-14.656,14.656v61.957c0,8.094,6.562,14.657,14.656,14.657H448.023z"/>
</g>
<path d="M441.887,505.173h-41.879c-4.714,0-8.533-3.821-8.533-8.533s3.819-8.533,8.533-8.533h41.879
	c29.25,0,53.047-23.797,53.047-53.047V76.941c0-29.251-23.797-53.048-53.047-53.048H175.695c-4.714,0-8.533-3.821-8.533-8.533
	s3.82-8.533,8.533-8.533h266.192C480.547,6.827,512,38.279,512,76.941V435.06C512,473.721,480.547,505.173,441.887,505.173z"/>
<path d="M365.874,505.173H70.113C31.453,505.173,0,473.721,0,435.06V76.941C0,38.279,31.453,6.827,70.113,6.827h71.448
	c4.714,0,8.533,3.821,8.533,8.533s-3.82,8.533-8.533,8.533H70.113c-29.25,0-53.047,23.797-53.047,53.048V435.06
	c0,29.25,23.797,53.047,53.047,53.047h295.761c4.714,0,8.533,3.821,8.533,8.533S370.588,505.173,365.874,505.173z"/>
<path d="M96.375,164.871c-29.868,0-54.167-24.3-54.167-54.167s24.3-54.167,54.167-54.167s54.167,24.3,54.167,54.167
	S126.243,164.871,96.375,164.871z M96.375,73.602c-20.457,0-37.101,16.643-37.101,37.101s16.643,37.101,37.101,37.101
	s37.101-16.643,37.101-37.101S116.834,73.602,96.375,73.602z"/>
<path d="M447.739,164.872H192.206c-12.786,0-23.19-10.403-23.19-23.19V79.725c0-12.786,10.404-23.189,23.19-23.189h174.611
	c4.714,0,8.533,3.821,8.533,8.533s-3.82,8.533-8.533,8.533H192.206c-3.377,0-6.124,2.747-6.124,6.122v61.957
	c0,3.377,2.747,6.124,6.124,6.124h255.535c3.377,0,6.124-2.747,6.124-6.124V79.725c0-3.376-2.747-6.122-6.124-6.122h-46.79
	c-4.714,0-8.533-3.821-8.533-8.533c0-4.713,3.82-8.533,8.533-8.533h46.79c12.786,0,23.19,10.403,23.19,23.189v61.957
	C470.93,154.469,460.527,164.872,447.739,164.872z"/>
<path d="M96.375,309.598c-29.868,0-54.167-24.3-54.167-54.167s24.3-54.167,54.167-54.167s54.167,24.3,54.167,54.167
	S126.243,309.598,96.375,309.598z M96.375,218.33c-20.457,0-37.101,16.643-37.101,37.101s16.643,37.101,37.101,37.101
	s37.101-16.643,37.101-37.101S116.834,218.33,96.375,218.33z"/>
<path d="M447.739,309.598H192.206c-12.786,0-23.19-10.403-23.19-23.189v-61.957c0-12.786,10.404-23.189,23.19-23.189h45.489
	c4.714,0,8.533,3.821,8.533,8.533c0,4.713-3.82,8.533-8.533,8.533h-45.489c-3.377,0-6.124,2.747-6.124,6.122v61.957
	c0,3.376,2.747,6.122,6.124,6.122h255.535c3.377,0,6.124-2.747,6.124-6.122v-61.957c0-3.376-2.747-6.122-6.124-6.122H271.829
	c-4.714,0-8.533-3.821-8.533-8.533c0-4.713,3.82-8.533,8.533-8.533h175.911c12.786,0,23.19,10.403,23.19,23.189v61.957
	C470.93,299.196,460.527,309.598,447.739,309.598z"/>
<path d="M96.375,454.327c-29.868,0-54.167-24.3-54.167-54.167c0-29.868,24.3-54.167,54.167-54.167s54.167,24.299,54.167,54.167
	C150.543,430.028,126.243,454.327,96.375,454.327z M96.375,363.058c-20.457,0-37.101,16.643-37.101,37.101
	c0,20.457,16.643,37.101,37.101,37.101s37.101-16.643,37.101-37.101C133.476,379.701,116.834,363.058,96.375,363.058z"/>
<path d="M447.739,454.327h-72.237c-4.714,0-8.533-3.821-8.533-8.533s3.82-8.533,8.533-8.533h72.237c3.377,0,6.124-2.747,6.124-6.124
	V369.18c0-3.376-2.747-6.122-6.124-6.122H192.206c-3.377,0-6.124,2.747-6.124,6.122v61.957c0,3.377,2.747,6.124,6.124,6.124H341.37
	c4.714,0,8.533,3.821,8.533,8.533s-3.82,8.533-8.533,8.533H192.206c-12.786,0-23.19-10.403-23.19-23.19V369.18
	c0-12.786,10.404-23.189,23.19-23.189h255.535c12.786,0,23.19,10.403,23.19,23.189v61.957
	C470.93,443.923,460.527,454.327,447.739,454.327z"/>
<g>
</g>
<g>
</g>
<g>
</g>
<g>
</g>
<g>
</g>
<g>
</g>
<g>
</g>
<g>
</g>
<g>
</g>
<g>
</g>
<g>
</g>
<g>
</g>
<g>
</g>
<g>
</g>
<g>
</g>
</svg>
