<?xml version="1.0" encoding="iso-8859-1"?>
<!-- Generator: Adobe Illustrator 19.0.0, SVG Export Plug-In . SVG Version: 6.00 Build 0)  -->
<svg version="1.1" id="Layer_1" xmlns="http://www.w3.org/2000/svg" xmlns:xlink="http://www.w3.org/1999/xlink" x="0px" y="0px"
	 viewBox="0 0 512 512" style="enable-background:new 0 0 512 512;" xml:space="preserve">
<circle style="fill:#FC6F58;" cx="256" cy="256" r="256"/>
<path style="fill:#F1543F;" d="M274.573,228.602l-50.666-50.29l-34.63,30.617l64.557,64.181l-28.577,61.328l-54.591,92.229L256,512
	c141.384,0,256-114.616,256-256L341.333,85.333L274.573,228.602z"/>
<path style="fill:#E6F3FF;" d="M336.162,176.592V95.677H175.838v80.915c0,16.11,8.452,31.039,22.268,39.327l0,0
	c13.814,8.289,22.268,23.218,22.268,39.327v1.505c0,16.11-8.452,31.039-22.268,39.327l0,0c-13.815,8.29-22.268,23.219-22.268,39.329
	v80.915h160.323v-80.915c0-16.11-8.452-31.039-22.268-39.327l0,0c-13.814-8.289-22.268-23.218-22.268-39.327v-1.505
	c0-16.11,8.452-31.039,22.268-39.327l0,0C327.709,207.631,336.162,192.702,336.162,176.592z"/>
<path style="fill:#CFDBE6;" d="M313.894,215.919L313.894,215.919c13.814-8.289,22.268-23.218,22.268-39.327V95.677h-80.736v320.646
	h80.736v-80.915c0-16.11-8.452-31.039-22.268-39.327l0,0c-13.814-8.289-22.268-23.218-22.268-39.327v-1.507
	C291.628,239.137,300.08,224.208,313.894,215.919z"/>
<path style="fill:#FFD15D;" d="M261.392,336.065l-1.083-0.541v-28.35l9.678-12.833c4.844-6.423,7.465-14.25,7.465-22.294v-16.724
	c0-14.465,5.089-27.869,13.409-35.311c8.318-7.442,13.409-20.845,13.409-35.311h-96.539c0,14.465,5.089,27.869,13.409,35.311
	c8.318,7.442,13.409,20.845,13.409,35.311v16.724c0,8.045,2.62,15.872,7.465,22.294l9.678,12.833v28.35l-1.083,0.541
	c-23.193,11.597-37.843,35.302-37.843,61.231v0.926h38.926v17.67h8.62v-17.67h38.926v-0.926
	C299.236,371.367,284.586,347.662,261.392,336.065z"/>
<path style="fill:#F9B54C;" d="M261.392,336.065l-1.083-0.541v-28.35l9.678-12.833c4.844-6.423,7.465-14.25,7.465-22.294v-16.724
	c0-14.465,5.089-27.869,13.409-35.311c8.32-7.442,13.409-20.845,13.409-35.311h-48.843v231.19h4.884v-17.67h38.926v-0.926
	C299.236,371.367,284.586,347.662,261.392,336.065z"/>
<g>
	<rect x="170.667" y="398.222" style="fill:#324A5E;" width="170.667" height="28.444"/>
	<rect x="170.667" y="85.333" style="fill:#324A5E;" width="170.667" height="28.444"/>
</g>
<g>
	<rect x="255.431" y="398.222" style="fill:#2B3B4E;" width="85.907" height="28.444"/>
	<rect x="255.431" y="85.333" style="fill:#2B3B4E;" width="85.907" height="28.444"/>
</g>
<g>
</g>
<g>
</g>
<g>
</g>
<g>
</g>
<g>
</g>
<g>
</g>
<g>
</g>
<g>
</g>
<g>
</g>
<g>
</g>
<g>
</g>
<g>
</g>
<g>
</g>
<g>
</g>
<g>
</g>
</svg>
