<?xml version="1.0" encoding="iso-8859-1"?>
<!-- Generator: Adobe Illustrator 19.0.0, SVG Export Plug-In . SVG Version: 6.00 Build 0)  -->
<svg version="1.1" id="Layer_1" xmlns="http://www.w3.org/2000/svg" xmlns:xlink="http://www.w3.org/1999/xlink" x="0px" y="0px"
	 viewBox="0 0 512 512" style="enable-background:new 0 0 512 512;" xml:space="preserve">
<path style="fill:#ECF0F1;" d="M280.475,500.622h-48.949c-77.598,0-140.503-62.905-140.503-140.503V176.356
	c0-91.114,73.863-164.978,164.978-164.978l0,0c91.114,0,164.978,73.863,164.978,164.978v183.764
	C420.978,437.717,358.072,500.622,280.475,500.622z"/>
<path style="fill:#00BCD4;" d="M256,215.603L256,215.603c-17.281,0-31.289-14.008-31.289-31.289v-39.822
	c0-17.281,14.008-31.289,31.289-31.289l0,0c17.281,0,31.289,14.008,31.289,31.289v39.822
	C287.289,201.594,273.281,215.603,256,215.603z"/>
<g>
	<path style="fill:#231F20;" d="M256,0C158.756,0,79.644,79.112,79.644,176.356v183.764c0,83.747,68.134,151.881,151.88,151.881
		h48.949c83.748,0,151.882-68.134,151.882-151.881V176.356C432.356,79.112,353.244,0,256,0z M256,204.224
		c-10.978,0-19.911-8.933-19.911-19.911v-39.822c0-10.978,8.933-19.911,19.911-19.911c10.978,0,19.911,8.933,19.911,19.911v39.822
		C275.911,195.293,266.978,204.224,256,204.224z M409.6,360.119c0,71.2-57.925,129.125-129.125,129.125h-48.949
		c-71.201,0-129.125-57.925-129.125-129.125V176.356c0-80.869,62.819-147.337,142.222-153.178v80.2
		c-18.019,4.993-31.289,21.528-31.289,41.114v39.822c0,19.587,13.27,36.121,31.289,41.114v64.694
		c0,6.283,5.095,11.378,11.378,11.378s11.378-5.095,11.378-11.378v-64.694c18.019-4.993,31.289-21.528,31.289-41.114v-39.822
		c0-19.587-13.27-36.121-31.289-41.114v-80.2C346.781,29.019,409.6,95.487,409.6,176.356V360.119z"/>
	<path style="fill:#231F20;" d="M136.533,164.978c-6.283,0-11.378,5.095-11.378,11.378v8.376c0,6.283,5.095,11.378,11.378,11.378
		c6.283,0,11.378-5.095,11.378-11.378v-8.376C147.911,170.073,142.816,164.978,136.533,164.978z"/>
	<path style="fill:#231F20;" d="M136.533,223.416c-6.283,0-11.378,5.095-11.378,11.378v125.324c0,6.283,5.095,11.378,11.378,11.378
		c6.283,0,11.378-5.095,11.378-11.378V234.794C147.911,228.511,142.816,223.416,136.533,223.416z"/>
	<path style="fill:#231F20;" d="M371.045,390.969c-5.66-2.726-12.46-0.352-15.189,5.311c-13.89,28.827-43.479,47.453-75.381,47.453
		c-6.283,0-11.378,5.095-11.378,11.378s5.095,11.378,11.378,11.378c40.586,0,78.221-23.681,95.882-60.331
		C379.085,400.498,376.707,393.696,371.045,390.969z"/>
	<path style="fill:#231F20;" d="M364.012,363.73c-0.266,6.278,4.606,11.584,10.884,11.851c0.165,0.007,0.329,0.01,0.493,0.01
		c6.06,0,11.099-4.781,11.358-10.894c0.065-1.529,0.098-3.069,0.098-4.577c0-6.283-5.095-11.378-11.378-11.378
		s-11.378,5.095-11.378,11.378C364.089,361.307,364.064,362.521,364.012,363.73z"/>
</g>
<g>
</g>
<g>
</g>
<g>
</g>
<g>
</g>
<g>
</g>
<g>
</g>
<g>
</g>
<g>
</g>
<g>
</g>
<g>
</g>
<g>
</g>
<g>
</g>
<g>
</g>
<g>
</g>
<g>
</g>
</svg>
