<?xml version="1.0" standalone="no"?><!DOCTYPE svg PUBLIC "-//W3C//DTD SVG 1.1//EN" "http://www.w3.org/Graphics/SVG/1.1/DTD/svg11.dtd"><svg t="1648308849197" class="icon" viewBox="0 0 1024 1024" version="1.1" xmlns="http://www.w3.org/2000/svg" p-id="8552" xmlns:xlink="http://www.w3.org/1999/xlink" width="128" height="128"><defs><style type="text/css">
</style></defs><path d="M174.999001 336.693984l667.247651 0c12.485309 0 22.514491-10.029182 22.514491-22.514491s-10.029182-22.514491-22.514491-22.514491L174.999001 291.665001c-12.485309 0-22.514491 10.029182-22.514491 22.514491S162.513692 336.693984 174.999001 336.693984z" p-id="8553" fill="#e6e6e6"></path><path d="M173.975615 516.809914l667.247651 0c12.485309 0 22.514491-10.029182 22.514491-22.514491s-10.029182-22.514491-22.514491-22.514491L173.975615 471.780931c-12.485309 0-22.514491 10.029182-22.514491 22.514491S161.490306 516.809914 173.975615 516.809914z" p-id="8554" fill="#e6e6e6"></path><path d="M842.246652 647.803318 174.999001 647.803318c-12.485309 0-22.514491 10.029182-22.514491 22.514491s10.029182 22.514491 22.514491 22.514491l667.247651 0c12.485309 0 22.514491-10.029182 22.514491-22.514491S854.731961 647.803318 842.246652 647.803318z" p-id="8555" fill="#e6e6e6"></path></svg>