<?xml version="1.0" standalone="no"?><!DOCTYPE svg PUBLIC "-//W3C//DTD SVG 1.1//EN" "http://www.w3.org/Graphics/SVG/1.1/DTD/svg11.dtd"><svg t="1644407964485" class="icon" viewBox="0 0 1024 1024" version="1.1" xmlns="http://www.w3.org/2000/svg" p-id="19311" xmlns:xlink="http://www.w3.org/1999/xlink" width="16" height="16"><defs><style type="text/css"></style></defs><path d="M512.00512 54.57024c-252.71424 0-457.43488 204.87936-457.43488 457.42464 0 252.67968 204.72064 457.43488 457.43488 457.43488 252.51456 0 457.42464-204.7552 457.42464-457.43488C969.42976 259.4496 764.51968 54.57024 512.00512 54.57024L512.00512 54.57024zM512.00512 904.14976c-216.52992 0-392.13952-175.6544-392.13952-392.15488 0-216.51968 175.6096-392.01536 392.13952-392.01536 216.45952 0 391.9552 175.49568 391.9552 392.01536C903.96032 728.49536 728.46464 904.14976 512.00512 904.14976L512.00512 904.14976zM512.00512 904.14976" p-id="19312" fill="#8b98a7"></path></svg>