<?xml version="1.0" standalone="no"?><!DOCTYPE svg PUBLIC "-//W3C//DTD SVG 1.1//EN" "http://www.w3.org/Graphics/SVG/1.1/DTD/svg11.dtd"><svg t="1644407995514" class="icon" viewBox="0 0 1024 1024" version="1.1" xmlns="http://www.w3.org/2000/svg" p-id="19660" xmlns:xlink="http://www.w3.org/1999/xlink" width="16" height="16"><defs><style type="text/css"></style></defs><path d="M511 766.1c-139.9 0-253.4-113.4-253.4-253.4S371.1 259.3 511 259.3s253.4 113.4 253.4 253.4S651 766.1 511 766.1z m0 126.6c209.9 0 380-170.1 380-380s-170.1-380-380-380-380 170.1-380 380 170.1 380 380 380z m0 63.4c-244.9 0-443.4-198.5-443.4-443.4C67.7 267.8 266.2 69.3 511 69.3c244.9 0 443.4 198.5 443.4 443.4 0 244.9-198.5 443.4-443.4 443.4z" p-id="19661" fill="#8b98a7"></path></svg>