<?xml version="1.0" standalone="no"?><!DOCTYPE svg PUBLIC "-//W3C//DTD SVG 1.1//EN" "http://www.w3.org/Graphics/SVG/1.1/DTD/svg11.dtd"><svg t="1644406050685" class="icon" viewBox="0 0 1024 1024" version="1.1" xmlns="http://www.w3.org/2000/svg" p-id="2063" xmlns:xlink="http://www.w3.org/1999/xlink" width="20" height="20"><defs><style type="text/css"></style></defs><path d="M511.9935 699.733c-102.4 0-187.733-85.333-187.733-187.733s85.333-187.733 187.733-187.733S699.7265 409.6 699.7265 512s-85.333 187.733-187.733 187.733z m472.177-250.311c-5.689-22.756-22.756-39.822-45.511-45.511l-11.378-5.689c-34.133-11.378-68.267-34.133-91.022-68.267s-22.756-73.956-17.067-113.778l5.689-11.378c5.689-17.067 0-45.511-17.067-62.578 0 0-17.067-11.378-56.889-34.133s-56.889-28.444-56.889-28.444c-22.756-5.689-45.511 0-62.578 17.067l-11.378 11.378c-28.444 22.756-68.267 39.822-108.089 39.822s-79.644-17.067-108.089-39.822l-5.689-17.067c-17.067-11.378-45.511-22.756-62.578-11.378 0 0-17.067 5.689-56.889 28.444s-56.889 34.133-56.889 34.133c-17.067 17.067-28.444 39.822-22.756 62.578l5.689 17.067c11.378 34.133 5.689 73.956-17.067 113.778-22.756 28.444-51.2 51.2-91.022 62.578l-11.378 5.689c-22.756 0-39.822 22.756-45.511 45.511 0 0-5.689 17.067-5.689 62.578s5.689 62.578 5.689 62.578c5.689 22.756 22.756 39.822 45.511 45.511l11.378 5.689c34.133 11.378 68.267 34.133 91.022 68.267s22.756 73.956 17.067 113.778l-5.689 11.378c-5.689 17.067 0 45.511 17.067 62.578 0 0 17.067 11.378 56.889 34.133s56.889 28.444 56.889 28.444c22.756 5.689 45.511 0 62.578-17.067l11.378-11.378c28.444-28.444 62.578-39.822 108.089-39.822 39.822 0 79.644 17.067 108.089 39.822l11.378 11.378c17.067 17.067 39.822 22.756 62.578 17.067 0 0 17.067-5.689 56.889-28.444s56.889-34.133 56.889-34.133 22.756-39.822 17.067-62.578l-5.689-17.067c-11.378-34.133-5.689-73.956 17.067-108.089s51.2-56.889 91.022-68.267l17.067-5.689c22.756-5.689 39.822-22.756 45.511-45.511 0 0 5.689-17.067 5.689-62.578-5.689-45.511-11.378-62.578-11.378-62.578z" p-id="2064" fill="#e6e6e6"></path></svg>