<?xml version="1.0" standalone="no"?><!DOCTYPE svg PUBLIC "-//W3C//DTD SVG 1.1//EN" "http://www.w3.org/Graphics/SVG/1.1/DTD/svg11.dtd"><svg t="1645168880192" class="icon" viewBox="0 0 1024 1024" version="1.1" xmlns="http://www.w3.org/2000/svg" p-id="13160" xmlns:xlink="http://www.w3.org/1999/xlink" width="128" height="128"><defs><style type="text/css"></style></defs><path d="M960 800 64 800c-38.4 0-64-25.6-64-64L0 64c0-38.4 25.6-64 64-64l896 0c38.4 0 64 25.6 64 64l0 672C1024 774.4 998.4 800 960 800zM960 128c0-38.4-25.6-64-64-64L128 64C89.6 64 64 89.6 64 128l0 448c0 38.4 25.6 64 64 64l768 0c38.4 0 64-25.6 64-64L960 128zM384 928 384 832l256 0 0 96c0 0 64 32 96 64C768 1024 704 1024 704 1024L320 1024c0 0-64 0-32-32C320 960 384 928 384 928z" p-id="13161" fill="#dbdbdb"></path></svg>