<?xml version="1.0" standalone="no"?><!DOCTYPE svg PUBLIC "-//W3C//DTD SVG 1.1//EN" "http://www.w3.org/Graphics/SVG/1.1/DTD/svg11.dtd"><svg t="1648309364141" class="icon" viewBox="0 0 1024 1024" version="1.1" xmlns="http://www.w3.org/2000/svg" p-id="14135" xmlns:xlink="http://www.w3.org/1999/xlink" width="128" height="128"><defs><style type="text/css">@font-face { font-family: feedback-iconfont; src: url("//at.alicdn.com/t/font_1031158_u69w8yhxdu.woff2?t=1630033759944") format("woff2"), url("//at.alicdn.com/t/font_1031158_u69w8yhxdu.woff?t=1630033759944") format("woff"), url("//at.alicdn.com/t/font_1031158_u69w8yhxdu.ttf?t=1630033759944") format("truetype"); }
</style></defs><path d="M837.72 704.45H186.28c-26.98 0-48.93-21.95-48.93-48.93V218.43c0-26.98 21.95-48.93 48.93-48.93h651.44c26.98 0 48.93 21.95 48.93 48.93v437.09c0 26.98-21.95 48.93-48.93 48.93zM186.28 211.44c-3.85 0-6.99 3.14-6.99 6.99v437.09c0 3.85 3.14 6.99 6.99 6.99h651.44c3.85 0 6.99-3.14 6.99-6.99V218.43c0-3.85-3.14-6.99-6.99-6.99H186.28z" p-id="14136" fill="#e6e6e6"></path><path d="M511.99 854.5c-11.58 0-20.97-9.39-20.97-20.97V683.48c0-11.58 9.39-20.97 20.97-20.97 11.58 0 20.97 9.39 20.97 20.97v150.05c0 11.58-9.4 20.97-20.97 20.97z" p-id="14137" fill="#e6e6e6"></path><path d="M782.08 854.5H241.92c-11.58 0-20.97-9.39-20.97-20.97 0-11.58 9.39-20.97 20.97-20.97h540.15c11.58 0 20.97 9.39 20.97 20.97 0.01 11.58-9.39 20.97-20.96 20.97zM574.16 340.05H241.92c-11.58 0-20.97-9.39-20.97-20.97 0-11.58 9.39-20.97 20.97-20.97h332.23c11.58 0 20.97 9.39 20.97 20.97 0.01 11.58-9.39 20.97-20.96 20.97zM574.16 457.95H241.92c-11.58 0-20.97-9.39-20.97-20.97 0-11.58 9.39-20.97 20.97-20.97h332.23c11.58 0 20.97 9.39 20.97 20.97 0.01 11.58-9.39 20.97-20.96 20.97zM782.08 575.84H241.92c-11.58 0-20.97-9.39-20.97-20.97s9.39-20.97 20.97-20.97h540.15c11.58 0 20.97 9.39 20.97 20.97s-9.39 20.97-20.96 20.97zM782.08 468.67h-128.6c-11.58 0-20.97-9.39-20.97-20.97V319.08c0-11.58 9.39-20.97 20.97-20.97h128.6c11.58 0 20.97 9.39 20.97 20.97V447.7c0 11.58-9.4 20.97-20.97 20.97z m-107.64-41.94h86.66v-86.68h-86.66v86.68z" p-id="14138" fill="#e6e6e6"></path></svg>